<mxfile host="65bd71144e" scale="1" border="20">
    <diagram id="SKKT97RxRqP2tx5iM8VO" name="History">
        <mxGraphModel dx="1858" dy="817" grid="1" gridSize="10" guides="1" tooltips="1" connect="1" arrows="1" fold="1" page="1" pageScale="1" pageWidth="1654" pageHeight="1169" background="#FFFFFF" math="0" shadow="0">
            <root>
                <mxCell id="cZ165Y8xMysXK6VZJFTn-0"/>
                <mxCell id="cZ165Y8xMysXK6VZJFTn-1" parent="cZ165Y8xMysXK6VZJFTn-0"/>
                <mxCell id="2Y4pjenZq1Eu_Ll-m7aH-1" value="&lt;font style=&quot;font-size: 24px&quot;&gt;Matching Service&lt;/font&gt;" style="text;html=1;align=center;verticalAlign=middle;resizable=0;points=[];autosize=1;strokeColor=none;fillColor=none;fontStyle=5" parent="cZ165Y8xMysXK6VZJFTn-1" vertex="1">
                    <mxGeometry x="722" y="95" width="210" height="20" as="geometry"/>
                </mxCell>
                <object placeholders="1" c4Name="User" c4Type="Person" c4Description="User" label="&lt;font style=&quot;font-size: 16px&quot;&gt;&lt;b&gt;%c4Name%&lt;/b&gt;&lt;/font&gt;&lt;div&gt;[%c4Type%]&lt;/div&gt;&lt;br&gt;&lt;div&gt;&lt;font style=&quot;font-size: 11px&quot;&gt;&lt;font color=&quot;#cccccc&quot;&gt;%c4Description%&lt;/font&gt;&lt;/div&gt;" id="2Y4pjenZq1Eu_Ll-m7aH-6">
                    <mxCell style="html=1;fontSize=11;dashed=0;whitespace=wrap;fillColor=#083F75;strokeColor=#06315C;fontColor=#ffffff;shape=mxgraph.c4.person2;align=center;metaEdit=1;points=[[0.5,0,0],[1,0.5,0],[1,0.75,0],[0.75,1,0],[0.5,1,0],[0.25,1,0],[0,0.75,0],[0,0.5,0]];resizable=0;" parent="cZ165Y8xMysXK6VZJFTn-1" vertex="1">
                        <mxGeometry x="125" y="240" width="200" height="180" as="geometry"/>
                    </mxCell>
                </object>
                <mxCell id="10" value="&lt;u style=&quot;font-weight: bold&quot;&gt;Technology used:&lt;br&gt;&lt;/u&gt;&lt;br&gt;1. NestJS&lt;br&gt;2. NestJS/Passport (Auth)&lt;br&gt;3. Redis (caching)&lt;br&gt;4. PlanetScale + Prisma (database)" style="rounded=0;whiteSpace=wrap;html=1;labelBackgroundColor=none;comic=0;align=left;labelPadding=0;metaEdit=0;horizontal=1;labelPosition=center;verticalLabelPosition=middle;verticalAlign=top;spacingRight=0;spacingLeft=10;labelBorderColor=none;fontColor=default;container=0;spacing=2;spacingTop=5;" parent="cZ165Y8xMysXK6VZJFTn-1" vertex="1">
                    <mxGeometry x="120" y="640" width="210" height="140" as="geometry"/>
                </mxCell>
                <mxCell id="11" value="" style="group" parent="cZ165Y8xMysXK6VZJFTn-1" vertex="1" connectable="0">
                    <mxGeometry x="120" y="480" width="210" height="140" as="geometry"/>
                </mxCell>
                <mxCell id="12" value="&lt;b&gt;&lt;u&gt;Legend&lt;/u&gt;&lt;/b&gt;" style="rounded=0;whiteSpace=wrap;html=1;labelBackgroundColor=none;comic=0;align=left;labelPadding=0;metaEdit=0;horizontal=1;labelPosition=center;verticalLabelPosition=middle;verticalAlign=top;spacingRight=0;spacingLeft=10;labelBorderColor=none;fontColor=default;spacingTop=5;container=0;" parent="11" vertex="1">
                    <mxGeometry width="210" height="140" as="geometry"/>
                </mxCell>
                <mxCell id="13" value="" style="endArrow=classic;html=1;rounded=0;labelBackgroundColor=default;strokeColor=default;fontFamily=Helvetica;fontSize=11;fontColor=default;shape=connector;endFill=1;" parent="11" edge="1">
                    <mxGeometry width="50" height="50" relative="1" as="geometry">
                        <mxPoint x="10" y="45" as="sourcePoint"/>
                        <mxPoint x="80" y="45" as="targetPoint"/>
                    </mxGeometry>
                </mxCell>
                <mxCell id="14" value="Happy path" style="text;html=1;align=left;verticalAlign=middle;resizable=0;points=[];autosize=1;strokeColor=none;fillColor=none;fontSize=11;fontFamily=Helvetica;fontColor=default;" parent="11" vertex="1">
                    <mxGeometry x="85" y="30" width="80" height="30" as="geometry"/>
                </mxCell>
                <mxCell id="15" value="" style="endArrow=classic;html=1;rounded=0;labelBackgroundColor=default;strokeColor=default;fontFamily=Helvetica;fontSize=11;fontColor=default;shape=connector;endFill=1;dashed=1;" parent="11" edge="1">
                    <mxGeometry width="50" height="50" relative="1" as="geometry">
                        <mxPoint x="10" y="69.79999999999995" as="sourcePoint"/>
                        <mxPoint x="80" y="69.79999999999995" as="targetPoint"/>
                    </mxGeometry>
                </mxCell>
                <mxCell id="16" value="Invalid path" style="text;html=1;align=left;verticalAlign=middle;resizable=0;points=[];autosize=1;strokeColor=none;fillColor=none;fontSize=11;fontFamily=Helvetica;fontColor=default;" parent="11" vertex="1">
                    <mxGeometry x="85" y="55" width="80" height="30" as="geometry"/>
                </mxCell>
                <mxCell id="17" value="Independent path" style="text;html=1;align=left;verticalAlign=middle;resizable=0;points=[];autosize=1;strokeColor=none;fillColor=none;fontSize=11;fontFamily=Helvetica;fontColor=default;" parent="11" vertex="1">
                    <mxGeometry x="85" y="86" width="100" height="20" as="geometry"/>
                </mxCell>
                <mxCell id="18" value="" style="endArrow=oval;html=1;rounded=0;labelBackgroundColor=default;strokeColor=default;fontFamily=Helvetica;fontSize=11;fontColor=default;shape=connector;endFill=0;" parent="11" edge="1">
                    <mxGeometry width="50" height="50" relative="1" as="geometry">
                        <mxPoint x="10" y="96" as="sourcePoint"/>
                        <mxPoint x="75" y="96" as="targetPoint"/>
                    </mxGeometry>
                </mxCell>
                <mxCell id="19" value="Concurrent path" style="text;html=1;align=left;verticalAlign=middle;resizable=0;points=[];autosize=1;strokeColor=none;fillColor=none;fontSize=11;fontFamily=Helvetica;fontColor=default;" parent="11" vertex="1">
                    <mxGeometry x="85" y="106" width="90" height="20" as="geometry"/>
                </mxCell>
                <mxCell id="20" value="" style="endArrow=oval;html=1;rounded=0;labelBackgroundColor=default;strokeColor=default;fontFamily=Helvetica;fontSize=11;fontColor=default;shape=connector;endFill=1;" parent="11" edge="1">
                    <mxGeometry width="50" height="50" relative="1" as="geometry">
                        <mxPoint x="10" y="116" as="sourcePoint"/>
                        <mxPoint x="75" y="116" as="targetPoint"/>
                    </mxGeometry>
                </mxCell>
            </root>
        </mxGraphModel>
    </diagram>
</mxfile>